<?xml version="1.0" encoding="UTF-8"?>
<svg version="1.1" xmlns="http://www.w3.org/2000/svg" width="129" height="137">
<path d="M0 0 C42.57 0 85.14 0 129 0 C129 45.21 129 90.42 129 137 C86.43 137 43.86 137 0 137 C0 91.79 0 46.58 0 0 Z " fill="#FDFEFE" transform="translate(0,0)"/>
<path d="M0 0 C0.66 0 1.32 0 2 0 C2.495 2.97 2.495 2.97 3 6 C6.96 6 10.92 6 15 6 C15.33 4.35 15.66 2.7 16 1 C16.66 1 17.32 1 18 1 C18 2.98 18 4.96 18 7 C20.31 7.66 22.62 8.32 25 9 C25.495 10.98 25.495 10.98 26 13 C33.92 12.505 33.92 12.505 42 12 C42 10.68 42 9.36 42 8 C42.99 8 43.98 8 45 8 C45.4021875 9.3921875 45.4021875 9.3921875 45.8125 10.8125 C46.93710035 13.8311641 47.70706573 14.9155143 50 17 C50 17.66 50 18.32 50 19 C50.99 19 51.98 19 53 19 C53 19.66 53 20.32 53 21 C52.01 21 51.02 21 50 21 C50 25.29 50 29.58 50 34 C51.98 34.33 53.96 34.66 56 35 C58 37 58 37 58.125 40.125 C58.08375 41.07375 58.0425 42.0225 58 43 C60.31 43 62.62 43 65 43 C65 48.61 65 54.22 65 60 C62.69 60 60.38 60 58 60 C58.061875 60.928125 58.12375 61.85625 58.1875 62.8125 C58 66 58 66 56.8125 67.875 C55 69 55 69 50 69 C50 73.29 50 77.58 50 82 C50.66 82 51.32 82 52 82 C52 84 52 84 49.625 86.625 C47 89 47 89 45 89 C45 90.98 45 92.96 45 95 C43.0625 95.5625 43.0625 95.5625 41 96 C40.67 95.67 40.34 95.34 40 95 C37.54715055 94.84614213 35.14179786 94.76836706 32.6875 94.75 C32.01009766 94.729375 31.33269531 94.70875 30.63476562 94.6875 C26.37344054 94.65417585 24.16031442 95.14745967 21 98 C20.34 98 19.68 98 19 98 C19 100.31 19 102.62 19 105 C14.9811485 106.81242323 11.38889325 108.33501617 7 109 C7 108.34 7 107.68 7 107 C4.36 106.34 1.72 105.68 -1 105 C-0.67 102.69 -0.34 100.38 0 98 C-0.8971875 97.814375 -0.8971875 97.814375 -1.8125 97.625 C-4 97 -4 97 -7 95 C-9.52272258 94.8306705 -11.91957416 94.76663174 -14.4375 94.8125 C-16.41556641 94.82216797 -16.41556641 94.82216797 -18.43359375 94.83203125 C-21.18516918 94.96162352 -23.40189099 95.16940249 -26 96 C-26.433125 94.9275 -26.86625 93.855 -27.3125 92.75 C-28.5673189 89.83976274 -29.82864003 87.35230663 -32 85 C-32.99 84.67 -33.98 84.34 -35 84 C-35 83.34 -35 82.68 -35 82 C-34.01 82 -33.02 82 -32 82 C-32 77.71 -32 73.42 -32 69 C-33.65 69 -35.3 69 -37 69 C-39.40311451 66.76261752 -39.96341425 65.53659096 -40.1875 62.25 C-40.125625 61.5075 -40.06375 60.765 -40 60 C-42.31 60 -44.62 60 -47 60 C-47 54.39 -47 48.78 -47 43 C-44.69 43 -42.38 43 -40 43 C-40.0825 42.071875 -40.165 41.14375 -40.25 40.1875 C-40 37 -40 37 -38.25 35.125 C-36 34 -36 34 -32 34 C-32 29.71 -32 25.42 -32 21 C-32.99 21 -33.98 21 -35 21 C-35 20.01 -35 19.02 -35 18 C-33.68 18 -32.36 18 -31 18 C-30.71125 17.38125 -30.4225 16.7625 -30.125 16.125 C-29 14 -29 14 -27 12 C-26.35232207 9.42938689 -26.35232207 9.42938689 -26 7 C-25.01 7.33 -24.02 7.66 -23 8 C-22.67 9.32 -22.34 10.64 -22 12 C-15.07 12.495 -15.07 12.495 -8 13 C-7.67 11.68 -7.34 10.36 -7 9 C-6.01 8.54625 -5.02 8.0925 -4 7.625 C-3.01 7.08875 -2.02 6.5525 -1 6 C-0.02525184 2.91038542 -0.02525184 2.91038542 0 0 Z " fill="#3AF19C" transform="translate(57,15)"/>
<path d="M0 0 C0.556875 0.309375 1.11375 0.61875 1.6875 0.9375 C1.8125 3.8125 1.8125 3.8125 1.6875 6.9375 C1.0275 7.5975 0.3675 8.2575 -0.3125 8.9375 C0.6775 9.4325 0.6775 9.4325 1.6875 9.9375 C1.6875 15.2175 1.6875 20.4975 1.6875 25.9375 C3.82992187 25.98648438 5.97234375 26.03546875 8.1796875 26.0859375 C10.25153673 26.13992706 12.32326904 26.19724232 14.39501953 26.25488281 C15.8363374 26.29319674 17.27775168 26.32804543 18.71923828 26.359375 C20.78973886 26.40497446 22.85957433 26.46297444 24.9296875 26.5234375 C26.1760498 26.5548584 27.42241211 26.5862793 28.70654297 26.61865234 C31.6875 26.9375 31.6875 26.9375 33.6875 28.9375 C33.8125 32.0625 33.8125 32.0625 33.6875 34.9375 C35.9975 34.9375 38.3075 34.9375 40.6875 34.9375 C40.6875 39.2275 40.6875 43.5175 40.6875 47.9375 C38.3775 47.9375 36.0675 47.9375 33.6875 47.9375 C33.72875 49.05125 33.77 50.165 33.8125 51.3125 C33.6875 54.9375 33.6875 54.9375 31.6875 56.9375 C28.61474609 57.25634766 28.61474609 57.25634766 24.7109375 57.3515625 C24.02569 57.37092865 23.3404425 57.3902948 22.63442993 57.4102478 C20.44391356 57.47006831 18.2533447 57.51643756 16.0625 57.5625 C14.57810198 57.60067763 13.09372616 57.63972924 11.609375 57.6796875 C7.96895315 57.77577084 4.32836564 57.85979282 0.6875 57.9375 C0.1925 58.9275 0.1925 58.9275 -0.3125 59.9375 C-2.01953125 60.82421875 -2.01953125 60.82421875 -4.125 61.625 C-5.15560547 62.03298828 -5.15560547 62.03298828 -6.20703125 62.44921875 C-8.60626496 63.00562731 -10.0019364 62.71114938 -12.3125 61.9375 C-12.3125 60.2875 -12.3125 58.6375 -12.3125 56.9375 C-12.9725 56.9375 -13.6325 56.9375 -14.3125 56.9375 C-14.3125 58.5875 -14.3125 60.2375 -14.3125 61.9375 C-21.99671053 62.23304656 -21.99671053 62.23304656 -25.3125 59.9375 C-25.6425 59.2775 -25.9725 58.6175 -26.3125 57.9375 C-27.2411084 57.91768066 -28.1697168 57.89786133 -29.12646484 57.87744141 C-32.5670052 57.79941387 -36.00709891 57.71272538 -39.44726562 57.62011719 C-40.93708889 57.58180002 -42.42700554 57.54695192 -43.91699219 57.515625 C-46.05698048 57.47003271 -48.19632436 57.41203126 -50.3359375 57.3515625 C-51.62419434 57.3201416 -52.91245117 57.2887207 -54.23974609 57.25634766 C-57.3125 56.9375 -57.3125 56.9375 -59.3125 54.9375 C-59.4375 51.3125 -59.4375 51.3125 -59.3125 47.9375 C-61.9525 47.9375 -64.5925 47.9375 -67.3125 47.9375 C-67.3125 43.6475 -67.3125 39.3575 -67.3125 34.9375 C-64.6725 34.9375 -62.0325 34.9375 -59.3125 34.9375 C-59.35375 33.82375 -59.395 32.71 -59.4375 31.5625 C-59.3125 27.9375 -59.3125 27.9375 -57.3125 25.9375 C-54.41088867 25.68212891 -54.41088867 25.68212891 -50.73046875 25.6640625 C-49.39256989 25.64376481 -48.05467933 25.62291387 -46.71679688 25.6015625 C-44.61019907 25.57900844 -42.50392958 25.56251095 -40.3972168 25.55664062 C-38.36186476 25.54707937 -36.3279879 25.51325435 -34.29296875 25.4765625 C-33.07504639 25.46834473 -31.85712402 25.46012695 -30.60229492 25.45166016 C-26.73234337 24.84682765 -25.15120455 23.56021274 -22.3125 20.9375 C-20.97916667 20.27083333 -19.64583333 19.60416667 -18.3125 18.9375 C-17.9825 18.2775 -17.6525 17.6175 -17.3125 16.9375 C-18.405625 17.4325 -19.49875 17.9275 -20.625 18.4375 C-24.3125 19.9375 -24.3125 19.9375 -27.3125 19.9375 C-27.3125 16.6375 -27.3125 13.3375 -27.3125 9.9375 C-26.6525 9.6075 -25.9925 9.2775 -25.3125 8.9375 C-25.9725 8.6075 -26.6325 8.2775 -27.3125 7.9375 C-27.5 4.5625 -27.5 4.5625 -27.3125 0.9375 C-24.22361478 -1.12175681 -23.60314073 -1.3015374 -20.125 -1.1875 C-18.2378125 -1.125625 -18.2378125 -1.125625 -16.3125 -1.0625 C-15.3225 1.2475 -14.3325 3.5575 -13.3125 5.9375 C-12.879375 4.803125 -12.44625 3.66875 -12 2.5 C-11.443125 1.324375 -10.88625 0.14875 -10.3125 -1.0625 C-6.30701099 -2.397663 -3.79413284 -1.74325022 0 0 Z " fill="#F7F7FB" transform="translate(79.3125,25.0625)"/>
<path d="M0 0 C0.66 0 1.32 0 2 0 C2.495 2.97 2.495 2.97 3 6 C6.96 6 10.92 6 15 6 C15.33 4.35 15.66 2.7 16 1 C16.66 1 17.32 1 18 1 C18 2.98 18 4.96 18 7 C20.31 7.66 22.62 8.32 25 9 C25.495 11.475 25.495 11.475 26 14 C30.62 14 35.24 14 40 14 C40 14.33 40 14.66 40 15 C35.38 15 30.76 15 26 15 C26 19.95 26 24.9 26 30 C27.65 28.68 29.3 27.36 31 26 C31.66 26 32.32 26 33 26 C31.61122646 29.35620271 30.08322035 31.07298728 27 33 C26.34 33 25.68 33 25 33 C25 33.66 25 34.32 25 35 C24.34 35 23.68 35 23 35 C23.33 30.05 23.66 25.1 24 20 C22.515 19.505 22.515 19.505 21 19 C21.66 18.34 22.32 17.68 23 17 C23.39764263 15.01178687 23.73775349 13.01055661 24 11 C19.98778958 9.9597973 16.16067938 9 12 9 C11.814375 9.7734375 11.814375 9.7734375 11.625 10.5625 C10.81358372 13.72702351 9.9054087 16.86124985 9 20 C8.67 20 8.34 20 8 20 C7.34 16.7 6.68 13.4 6 10 C4.72125 9.979375 3.4425 9.95875 2.125 9.9375 C1.40570313 9.92589844 0.68640625 9.91429687 -0.0546875 9.90234375 C-2.08185404 9.87350758 -2.08185404 9.87350758 -4 11 C-4.40729228 13.32156597 -4.74438677 15.6568787 -5 18 C-4.01 18.33 -3.02 18.66 -2 19 C-2.99 19.33 -3.98 19.66 -5 20 C-5 23.3 -5 26.6 -5 30 C-1.7 29.01 1.6 28.02 5 27 C3.82648048 30.52055855 3.09677617 30.82223387 0 32.625 C-2.6586047 34.1056001 -2.6586047 34.1056001 -5 36 C-7.20546026 36.14652715 -9.41533134 36.22749512 -11.625 36.28125 C-12.61814209 36.30886414 -12.61814209 36.30886414 -13.63134766 36.33703613 C-16.47476581 36.41594551 -19.31842959 36.48353025 -22.16210938 36.55224609 C-24.23319557 36.60388113 -26.30407203 36.66116822 -28.375 36.71875 C-30.24285156 36.76418945 -30.24285156 36.76418945 -32.1484375 36.81054688 C-34.89838303 36.67882448 -34.89838303 36.67882448 -36 38 C-36.36760731 40.32817964 -36.70241581 42.6618385 -37 45 C-39.64 45 -42.28 45 -45 45 C-45 49.29 -45 53.58 -45 58 C-42.36 58 -39.72 58 -37 58 C-36.855625 59.134375 -36.71125 60.26875 -36.5625 61.4375 C-36.38828522 64.80777201 -36.38828522 64.80777201 -35 66 C-32.71011219 66.15888092 -30.41556559 66.25138073 -28.12109375 66.31640625 C-27.09110008 66.3475779 -27.09110008 66.3475779 -26.04029846 66.37937927 C-23.83947065 66.44494143 -21.63852025 66.50379015 -19.4375 66.5625 C-17.94855486 66.60567892 -16.45962227 66.649293 -14.97070312 66.69335938 C-11.31393447 66.8006293 -7.65702682 66.90187772 -4 67 C-3.67 67.99 -3.34 68.98 -3 70 C0.63 70.66 4.26 71.32 8 72 C8 70.35 8 68.7 8 67 C8.66 67 9.32 67 10 67 C10.185625 68.7015625 10.185625 68.7015625 10.375 70.4375 C10.58125 71.613125 10.7875 72.78875 11 74 C11.99 74.495 11.99 74.495 13 75 C12.34 75.66 11.68 76.32 11 77 C10.54188325 78.97235333 10.54188325 78.97235333 10.375 81.125 C10.189375 83.043125 10.189375 83.043125 10 85 C10.66 85 11.32 85 12 85 C12.33 85.99 12.66 86.98 13 88 C12.01 88.495 12.01 88.495 11 89 C10.46326107 94.36090593 10.46326107 94.36090593 12.5 99 C13.2425 99.495 13.2425 99.495 14 100 C11 102 11 102 8.4375 101.75 C6 101 6 101 4 99 C4.99 98.67 5.98 98.34 7 98 C7 95.03 7 92.06 7 89 C6.01 88.505 6.01 88.505 5 88 C5.495 86.515 5.495 86.515 6 85 C6.66 85 7.32 85 8 85 C8.09499972 80.85823651 8.09499972 80.85823651 7 77 C4.2071681 75.02891586 1.24764741 74.00847999 -2 73 C-2.99 72.67 -3.98 72.34 -5 72 C-5 77.94 -5 83.88 -5 90 C-5.33 90 -5.66 90 -6 90 C-6.04898438 88.94039063 -6.09796875 87.88078125 -6.1484375 86.7890625 C-6.22346709 85.40101503 -6.29901485 84.01299549 -6.375 82.625 C-6.4059375 81.92632812 -6.436875 81.22765625 -6.46875 80.5078125 C-6.59499498 76.29814173 -6.59499498 76.29814173 -9 73 C-14.1257786 77.73636767 -14.1257786 77.73636767 -17 84 C-19.375 83.8125 -19.375 83.8125 -22 83 C-23.0625 80.6875 -23.0625 80.6875 -24 78 C-26.02040748 75.72808584 -26.02040748 75.72808584 -28 74 C-28.59819121 81.30570931 -28.59819121 81.30570931 -26.375 88.125 C-20.93366392 91.14796449 -15.12952398 90.90876216 -9 91 C-8.67 91.99 -8.34 92.98 -8 94 C-8.96421875 94.06058594 -9.9284375 94.12117188 -10.921875 94.18359375 C-12.18515625 94.26738281 -13.4484375 94.35117188 -14.75 94.4375 C-16.00296875 94.51871094 -17.2559375 94.59992188 -18.546875 94.68359375 C-21.18317553 94.92515522 -23.48037294 95.24283934 -26 96 C-26.433125 94.9275 -26.86625 93.855 -27.3125 92.75 C-28.5673189 89.83976274 -29.82864003 87.35230663 -32 85 C-32.99 84.67 -33.98 84.34 -35 84 C-35 83.34 -35 82.68 -35 82 C-34.01 82 -33.02 82 -32 82 C-32 77.71 -32 73.42 -32 69 C-33.65 69 -35.3 69 -37 69 C-39.40311451 66.76261752 -39.96341425 65.53659096 -40.1875 62.25 C-40.125625 61.5075 -40.06375 60.765 -40 60 C-42.31 60 -44.62 60 -47 60 C-47 54.39 -47 48.78 -47 43 C-44.69 43 -42.38 43 -40 43 C-40.0825 42.071875 -40.165 41.14375 -40.25 40.1875 C-40 37 -40 37 -38.25 35.125 C-36 34 -36 34 -32 34 C-32 29.71 -32 25.42 -32 21 C-32.99 21 -33.98 21 -35 21 C-35 20.01 -35 19.02 -35 18 C-33.68 18 -32.36 18 -31 18 C-30.71125 17.38125 -30.4225 16.7625 -30.125 16.125 C-29 14 -29 14 -27 12 C-26.35232207 9.42938689 -26.35232207 9.42938689 -26 7 C-25.01 7.33 -24.02 7.66 -23 8 C-22.67 9.32 -22.34 10.64 -22 12 C-15.07 12.495 -15.07 12.495 -8 13 C-7.67 11.68 -7.34 10.36 -7 9 C-6.01 8.54625 -5.02 8.0925 -4 7.625 C-3.01 7.08875 -2.02 6.5525 -1 6 C-0.02525184 2.91038542 -0.02525184 2.91038542 0 0 Z " fill="#01EEFE" transform="translate(57,15)"/>
<path d="M0 0 C0.99 0 1.98 0 3 0 C3.268125 0.928125 3.53625 1.85625 3.8125 2.8125 C4.93710035 5.8311641 5.70706573 6.9155143 8 9 C8 9.66 8 10.32 8 11 C8.99 11 9.98 11 11 11 C11 11.66 11 12.32 11 13 C10.01 13 9.02 13 8 13 C8 17.29 8 21.58 8 26 C9.98 26.33 11.96 26.66 14 27 C16 29 16 29 16.125 32.125 C16.08375 33.07375 16.0425 34.0225 16 35 C18.31 35 20.62 35 23 35 C23 40.61 23 46.22 23 52 C20.69 52 18.38 52 16 52 C16.061875 52.928125 16.12375 53.85625 16.1875 54.8125 C16 58 16 58 14.8125 59.875 C13 61 13 61 8 61 C8 65.29 8 69.58 8 74 C8.66 74 9.32 74 10 74 C10 74.66 10 75.32 10 76 C8.35 76.99 6.7 77.98 5 79 C5 74.71 5 70.42 5 66 C-0.29189549 70.02208608 -0.29189549 70.02208608 -3 76 C-5.375 75.8125 -5.375 75.8125 -8 75 C-8.69040574 73.34302621 -9.3530635 71.6744239 -10 70 C-11.98 68.35 -13.96 66.7 -16 65 C-16 70.94 -16 76.88 -16 83 C-16.33 83 -16.66 83 -17 83 C-17 76.73 -17 70.46 -17 64 C-15.02 63.505 -15.02 63.505 -13 63 C-11.47265625 64.25 -11.47265625 64.25 -10.0625 66 C-7.77889496 68.60275656 -7.77889496 68.60275656 -4.4375 69.1875 C-1.31256981 67.66509811 0.62222192 65.50630663 3 63 C3.66 63 4.32 63 5 63 C5 61.68 5 60.36 5 59 C6.134375 58.855625 7.26875 58.71125 8.4375 58.5625 C11.80777201 58.38828522 11.80777201 58.38828522 13 57 C13.36760731 54.67182036 13.70241581 52.3381615 14 50 C16.31 50 18.62 50 21 50 C21 45.71 21 41.42 21 37 C18.69 37 16.38 37 14 37 C13.34 34.69 12.68 32.38 12 30 C-2.85 29.505 -2.85 29.505 -18 29 C-18.33 28.34 -18.66 27.68 -19 27 C-18.34 27 -17.68 27 -17 27 C-17 26.34 -17 25.68 -17 25 C-15.00669158 23.65668346 -13.00615134 22.32405988 -11 21 C-10.34 20.01 -9.68 19.02 -9 18 C-9.78375 18.66 -10.5675 19.32 -11.375 20 C-14 22 -14 22 -16 22 C-16 16.39 -16 10.78 -16 5 C-8.08 4.505 -8.08 4.505 0 4 C0 2.68 0 1.36 0 0 Z " fill="#66F3A4" transform="translate(99,23)"/>
<path d="M0 0 C0.99 0.66 1.98 1.32 3 2 C3.33 1.34 3.66 0.68 4 0 C14.64956558 1.93421597 14.64956558 1.93421597 17 5 C17.49504867 7.75154957 17.49862867 10.24894526 17 13 C15.5 15 15.5 15 14 16 C14.99 16.33 15.98 16.66 17 17 C17 19.97 17 22.94 17 26 C13 28 13 28 10 28 C13.222107 31.8665284 16.14922412 32.88059018 21 34 C20.67 34.99 20.34 35.98 20 37 C18.68 37 17.36 37 16 37 C16 36.34 16 35.68 16 35 C13.36 34.34 10.72 33.68 8 33 C8.33 30.69 8.66 28.38 9 26 C8.4225 25.896875 7.845 25.79375 7.25 25.6875 C5 25 5 25 3.26171875 23.48046875 C0.26856203 21.52121764 -1.88721546 21.66604375 -5.4375 21.625 C-11.61450339 21.29297742 -11.61450339 21.29297742 -15.125 18.625 C-15.74375 17.75875 -16.3625 16.8925 -17 16 C-17.52980469 15.57847656 -18.05960938 15.15695313 -18.60546875 14.72265625 C-20.6860992 12.1524657 -20.29213821 10.05628465 -20.1875 6.8125 C-20.16042969 5.72582031 -20.13335938 4.63914062 -20.10546875 3.51953125 C-20.07066406 2.68808594 -20.03585938 1.85664062 -20 1 C-18.84481082 1.90484792 -17.70114594 2.8244206 -16.5625 3.75 C-15.92441406 4.26046875 -15.28632812 4.7709375 -14.62890625 5.296875 C-12.81189446 7.19667629 -12.39576803 8.43586908 -12 11 C-10.68 11.33 -9.36 11.66 -8 12 C-7.690625 10.700625 -7.690625 10.700625 -7.375 9.375 C-5.62470564 5.07882294 -3.40607577 3.10989527 0 0 Z " fill="#02F0E9" transform="translate(48,87)"/>
<path d="M0 0 C0.33 0 0.66 0 1 0 C1.144375 1.134375 1.28875 2.26875 1.4375 3.4375 C1.61171478 6.80777201 1.61171478 6.80777201 3 8 C5.28988781 8.15888092 7.58443441 8.25138073 9.87890625 8.31640625 C10.5655687 8.33718735 11.25223114 8.35796844 11.95970154 8.37937927 C14.16052935 8.44494143 16.36147975 8.50379015 18.5625 8.5625 C20.05144514 8.60567892 21.54037773 8.649293 23.02929688 8.69335938 C26.68606553 8.8006293 30.34297318 8.90187772 34 9 C34.495 10.485 34.495 10.485 35 12 C38.63 12.66 42.26 13.32 46 14 C46 12.35 46 10.7 46 9 C46.66 9 47.32 9 48 9 C48.12375 10.134375 48.2475 11.26875 48.375 12.4375 C48.58125 13.613125 48.7875 14.78875 49 16 C49.66 16.33 50.32 16.66 51 17 C50.34 17.66 49.68 18.32 49 19 C48.54188325 20.97235333 48.54188325 20.97235333 48.375 23.125 C48.189375 25.043125 48.189375 25.043125 48 27 C48.66 27 49.32 27 50 27 C50.495 28.485 50.495 28.485 51 30 C50.01 30.495 50.01 30.495 49 31 C48.46326107 36.36090593 48.46326107 36.36090593 50.5 41 C51.2425 41.495 51.2425 41.495 52 42 C49 44 49 44 46.4375 43.75 C44 43 44 43 42 41 C42.99 40.67 43.98 40.34 45 40 C45 37.03 45 34.06 45 31 C44.34 30.67 43.68 30.34 43 30 C43.495 28.515 43.495 28.515 44 27 C44.66 27 45.32 27 46 27 C46.09499972 22.85823651 46.09499972 22.85823651 45 19 C42.2071681 17.02891586 39.24764741 16.00847999 36 15 C35.01 14.67 34.02 14.34 33 14 C33 19.94 33 25.88 33 32 C32.67 32 32.34 32 32 32 C31.95101562 30.94039062 31.90203125 29.88078125 31.8515625 28.7890625 C31.77653291 27.40101503 31.70098515 26.01299549 31.625 24.625 C31.5940625 23.92632812 31.563125 23.22765625 31.53125 22.5078125 C31.40500502 18.29814173 31.40500502 18.29814173 29 15 C23.8742214 19.73636767 23.8742214 19.73636767 21 26 C18.625 25.8125 18.625 25.8125 16 25 C14.9375 22.6875 14.9375 22.6875 14 20 C11.97959252 17.72808584 11.97959252 17.72808584 10 16 C9.40180879 23.30570931 9.40180879 23.30570931 11.625 30.125 C17.06633608 33.14796449 22.87047602 32.90876216 29 33 C29.33 33.99 29.66 34.98 30 36 C29.03578125 36.06058594 28.0715625 36.12117188 27.078125 36.18359375 C25.81484375 36.26738281 24.5515625 36.35117188 23.25 36.4375 C21.99703125 36.51871094 20.7440625 36.59992188 19.453125 36.68359375 C16.81682447 36.92515522 14.51962706 37.24283934 12 38 C11.566875 36.9275 11.13375 35.855 10.6875 34.75 C9.4326811 31.83976274 8.17135997 29.35230663 6 27 C5.01 26.67 4.02 26.34 3 26 C3 25.34 3 24.68 3 24 C3.99 24 4.98 24 6 24 C6 19.71 6 15.42 6 11 C4.35 11 2.7 11 1 11 C-0.98362069 8.08291076 -0.9876191 6.87619096 -0.625 3.25 C-0.41875 2.1775 -0.2125 1.105 0 0 Z " fill="#0FEFFB" transform="translate(19,73)"/>
<path d="M0 0 C0.556875 0.309375 1.11375 0.61875 1.6875 0.9375 C1.8125 3.8125 1.8125 3.8125 1.6875 6.9375 C1.0275 7.5975 0.3675 8.2575 -0.3125 8.9375 C0.3475 9.2675 1.0075 9.5975 1.6875 9.9375 C1.74136629 12.06222576 1.78023071 14.18733652 1.8125 16.3125 C1.83570312 17.49585937 1.85890625 18.67921875 1.8828125 19.8984375 C1.6875 22.9375 1.6875 22.9375 -0.3125 24.9375 C-0.71082031 24.47730469 -1.10914062 24.01710938 -1.51953125 23.54296875 C-3.61116516 21.6700678 -5.32671992 21.06360698 -8 20.25 C-8.80824219 19.99863281 -9.61648437 19.74726562 -10.44921875 19.48828125 C-11.06410156 19.30652344 -11.67898437 19.12476562 -12.3125 18.9375 C-12.3125 20.9175 -12.3125 22.8975 -12.3125 24.9375 C-12.9725 24.9375 -13.6325 24.9375 -14.3125 24.9375 C-14.3125 22.9575 -14.3125 20.9775 -14.3125 18.9375 C-15.3025 18.9375 -16.2925 18.9375 -17.3125 18.9375 C-17.3125 18.2775 -17.3125 17.6175 -17.3125 16.9375 C-18.405625 17.4325 -19.49875 17.9275 -20.625 18.4375 C-24.3125 19.9375 -24.3125 19.9375 -27.3125 19.9375 C-27.3125 16.6375 -27.3125 13.3375 -27.3125 9.9375 C-26.6525 9.6075 -25.9925 9.2775 -25.3125 8.9375 C-25.9725 8.6075 -26.6325 8.2775 -27.3125 7.9375 C-27.5 4.5625 -27.5 4.5625 -27.3125 0.9375 C-24.22361478 -1.12175681 -23.60314073 -1.3015374 -20.125 -1.1875 C-18.2378125 -1.125625 -18.2378125 -1.125625 -16.3125 -1.0625 C-15.3225 1.2475 -14.3325 3.5575 -13.3125 5.9375 C-12.879375 4.803125 -12.44625 3.66875 -12 2.5 C-11.443125 1.324375 -10.88625 0.14875 -10.3125 -1.0625 C-6.30701099 -2.397663 -3.79413284 -1.74325022 0 0 Z " fill="#0AF2DB" transform="translate(79.3125,25.0625)"/>
<path d="M0 0 C0.66 0 1.32 0 2 0 C2.33 1.98 2.66 3.96 3 6 C6.96 6 10.92 6 15 6 C15.33 4.35 15.66 2.7 16 1 C16.66 1 17.32 1 18 1 C18 2.98 18 4.96 18 7 C20.31 7.66 22.62 8.32 25 9 C25.495 11.475 25.495 11.475 26 14 C30.62 14 35.24 14 40 14 C40 14.33 40 14.66 40 15 C35.38 15 30.76 15 26 15 C26 19.95 26 24.9 26 30 C27.65 28.68 29.3 27.36 31 26 C31.66 26 32.32 26 33 26 C31.61122646 29.35620271 30.08322035 31.07298728 27 33 C26.34 33 25.68 33 25 33 C25 33.66 25 34.32 25 35 C24.34 35 23.68 35 23 35 C23.33 30.05 23.66 25.1 24 20 C23.01 19.67 22.02 19.34 21 19 C21.66 18.34 22.32 17.68 23 17 C23.39764263 15.01178687 23.73775349 13.01055661 24 11 C19.98778958 9.9597973 16.16067938 9 12 9 C11.814375 9.7734375 11.814375 9.7734375 11.625 10.5625 C10.81358372 13.72702351 9.9054087 16.86124985 9 20 C8.67 20 8.34 20 8 20 C7.34 16.7 6.68 13.4 6 10 C4.72125 9.979375 3.4425 9.95875 2.125 9.9375 C1.40570313 9.92589844 0.68640625 9.91429687 -0.0546875 9.90234375 C-2.08185404 9.87350758 -2.08185404 9.87350758 -4 11 C-4.40729228 13.32156597 -4.74438677 15.6568787 -5 18 C-4.01 18.33 -3.02 18.66 -2 19 C-2.99 19.33 -3.98 19.66 -5 20 C-5 23.3 -5 26.6 -5 30 C-1.7 29.01 1.6 28.02 5 27 C3.82648048 30.52055855 3.09677617 30.82223387 0 32.625 C-2.6586047 34.1056001 -2.6586047 34.1056001 -5 36 C-6.66617115 36.04063832 -8.33388095 36.042721 -10 36 C-10.2475 35.2575 -10.495 34.515 -10.75 33.75 C-12.09365194 30.79396573 -13.68986685 29.23312872 -16 27 C-16 26.34 -16 25.68 -16 25 C-20.43090471 26.20842856 -22.98112756 27.51668565 -26 31 C-26.66 30.34 -27.32 29.68 -28 29 C-27.195625 28.278125 -26.39125 27.55625 -25.5625 26.8125 C-22.97707928 23.97484311 -22.31957187 22.72833853 -22 19 C-20.02 19 -18.04 19 -16 19 C-15.7525 19.7425 -15.505 20.485 -15.25 21.25 C-13.90634806 24.20603427 -12.31013315 25.76687128 -10 28 C-10 28.66 -10 29.32 -10 30 C-9.34 30 -8.68 30 -8 30 C-8 25.05 -8 20.1 -8 15 C-11.96 15 -15.92 15 -20 15 C-20 14.67 -20 14.34 -20 14 C-19.24074219 13.98582031 -18.48148438 13.97164062 -17.69921875 13.95703125 C-14.7233406 13.81421998 -11.91845975 13.60710901 -9 13 C-7.04664818 10.66209929 -7.04664818 10.66209929 -6 8 C-5.13375 7.690625 -4.2675 7.38125 -3.375 7.0625 C-2.59125 6.711875 -1.8075 6.36125 -1 6 C-0.10169161 2.94727535 -0.10169161 2.94727535 0 0 Z " fill="#0FF2F1" transform="translate(57,15)"/>
<path d="M0 0 C0 1.98 0 3.96 0 6 C2.31 6 4.62 6 7 6 C7 11.61 7 17.22 7 23 C4.69 23 2.38 23 0 23 C0.061875 23.928125 0.12375 24.85625 0.1875 25.8125 C0 29 0 29 -1.1875 30.875 C-3 32 -3 32 -8 32 C-8 36.29 -8 40.58 -8 45 C-7.34 45 -6.68 45 -6 45 C-6 45.66 -6 46.32 -6 47 C-7.65 47.99 -9.3 48.98 -11 50 C-11 45.71 -11 41.42 -11 37 C-16.29189549 41.02208608 -16.29189549 41.02208608 -19 47 C-21.375 46.8125 -21.375 46.8125 -24 46 C-24.69040574 44.34302621 -25.3530635 42.6744239 -26 41 C-27.98 39.35 -29.96 37.7 -32 36 C-32 41.94 -32 47.88 -32 54 C-32.33 54 -32.66 54 -33 54 C-33 47.73 -33 41.46 -33 35 C-31.02 34.505 -31.02 34.505 -29 34 C-27.47265625 35.25 -27.47265625 35.25 -26.0625 37 C-23.77889496 39.60275656 -23.77889496 39.60275656 -20.4375 40.1875 C-17.31256981 38.66509811 -15.37777808 36.50630663 -13 34 C-12.34 34 -11.68 34 -11 34 C-11 32.68 -11 31.36 -11 30 C-9.865625 29.855625 -8.73125 29.71125 -7.5625 29.5625 C-4.19222799 29.38828522 -4.19222799 29.38828522 -3 28 C-2.63239269 25.67182036 -2.29758419 23.3381615 -2 21 C0.31 21 2.62 21 5 21 C5 16.71 5 12.42 5 8 C2.69 8 0.38 8 -2 8 C-2.66 5.69 -3.32 3.38 -4 1 C-18.85 0.505 -18.85 0.505 -34 0 C-34 -0.33 -34 -0.66 -34 -1 C-29.80125838 -1.19279158 -25.60222204 -1.3714261 -21.40234375 -1.53710938 C-19.97444624 -1.59541735 -18.54669964 -1.65755423 -17.11914062 -1.72363281 C-15.06408166 -1.81808538 -13.00886899 -1.89863877 -10.953125 -1.9765625 C-9.09929199 -2.05511475 -9.09929199 -2.05511475 -7.20800781 -2.13525391 C-4.13525065 -2.00570235 -2.554094 -1.63395097 0 0 Z " fill="#63F1A2" transform="translate(115,52)"/>
<path d="M0 0 C0 6.27 0 12.54 0 19 C-15.26785714 19.80357143 -15.26785714 19.80357143 -18.9375 16.75 C-22.40410529 12.27905112 -21.46575134 6.33026536 -21 1 C-19.84481082 1.90484792 -18.70114594 2.8244206 -17.5625 3.75 C-16.92441406 4.26046875 -16.28632812 4.7709375 -15.62890625 5.296875 C-13.81189446 7.19667629 -13.39576803 8.43586908 -13 11 C-11.68 11.33 -10.36 11.66 -9 12 C-8.690625 10.700625 -8.690625 10.700625 -8.375 9.375 C-7.16988628 6.41699361 -3.79497446 0 0 0 Z " fill="#EBFEFD" transform="translate(49,87)"/>
<path d="M0 0 C3.61032958 1.80516479 5.44445338 3.00384189 8 6 C8.75 8.25 8.75 8.25 9 10 C10.32 10 11.64 10 13 10 C13.2475 9.2575 13.495 8.515 13.75 7.75 C15.10465039 4.76976913 16.5101541 3.10080748 19 1 C19.66 1 20.32 1 21 1 C22.02741702 11.69274747 22.02741702 11.69274747 18.9375 15.6875 C13.97712874 19.89959141 5.9626726 18.31382487 0 18 C0 12.06 0 6.12 0 0 Z " fill="#F5FEF9" transform="translate(83,88)"/>
<path d="M0 0 C3.3 0 6.6 0 10 0 C10.33 0.99 10.66 1.98 11 3 C14.63 3.66 18.26 4.32 22 5 C22 3.35 22 1.7 22 0 C22.66 0 23.32 0 24 0 C24.12375 1.134375 24.2475 2.26875 24.375 3.4375 C24.58125 4.613125 24.7875 5.78875 25 7 C25.66 7.33 26.32 7.66 27 8 C26.34 8.66 25.68 9.32 25 10 C24.54188325 11.97235333 24.54188325 11.97235333 24.375 14.125 C24.25125 15.40375 24.1275 16.6825 24 18 C24.66 18 25.32 18 26 18 C26.33 18.99 26.66 19.98 27 21 C26.34 21.33 25.68 21.66 25 22 C24.46326107 27.36090593 24.46326107 27.36090593 26.5 32 C26.995 32.33 27.49 32.66 28 33 C25 35 25 35 22.4375 34.75 C20 34 20 34 18 32 C18.99 31.67 19.98 31.34 21 31 C21 28.03 21 25.06 21 22 C20.34 21.67 19.68 21.34 19 21 C19.33 20.01 19.66 19.02 20 18 C20.66 18 21.32 18 22 18 C22.09499972 13.85823651 22.09499972 13.85823651 21 10 C18.2071681 8.02891586 15.24764741 7.00847999 12 6 C11.01 5.67 10.02 5.34 9 5 C9 10.94 9 16.88 9 23 C8.67 23 8.34 23 8 23 C7.95101562 21.94039062 7.90203125 20.88078125 7.8515625 19.7890625 C7.77653291 18.40101503 7.70098515 17.01299549 7.625 15.625 C7.5940625 14.92632812 7.563125 14.22765625 7.53125 13.5078125 C7.40500502 9.29814173 7.40500502 9.29814173 5 6 C4.01 6.66 3.02 7.32 2 8 C2 6.68 2 5.36 2 4 C2.66 4 3.32 4 4 4 C4 3.34 4 2.68 4 2 C2.68 2 1.36 2 0 2 C0 1.34 0 0.68 0 0 Z M-1 7 C-0.01 7.495 -0.01 7.495 1 8 C0.01 8.495 0.01 8.495 -1 9 C-1 8.34 -1 7.68 -1 7 Z " fill="#24F3DD" transform="translate(43,82)"/>
<path d="M0 0 C0.66 0 1.32 0 2 0 C2.33 1.98 2.66 3.96 3 6 C6.96 6 10.92 6 15 6 C15.33 4.35 15.66 2.7 16 1 C16.66 1 17.32 1 18 1 C18 2.98 18 4.96 18 7 C20.31 7.66 22.62 8.32 25 9 C25.33 10.65 25.66 12.3 26 14 C30.62 14 35.24 14 40 14 C40 14.33 40 14.66 40 15 C35.38 15 30.76 15 26 15 C26 19.95 26 24.9 26 30 C27.65 28.68 29.3 27.36 31 26 C31.66 26 32.32 26 33 26 C31.61122646 29.35620271 30.08322035 31.07298728 27 33 C26.34 33 25.68 33 25 33 C25 33.66 25 34.32 25 35 C24.34 35 23.68 35 23 35 C23.33 30.05 23.66 25.1 24 20 C23.01 19.67 22.02 19.34 21 19 C21.66 18.34 22.32 17.68 23 17 C23.39764263 15.01178687 23.73775349 13.01055661 24 11 C19.98778958 9.9597973 16.16067938 9 12 9 C11.87625 9.515625 11.7525 10.03125 11.625 10.5625 C10.81358372 13.72702351 9.9054087 16.86124985 9 20 C8.67 20 8.34 20 8 20 C7.34 16.7 6.68 13.4 6 10 C2.19140625 10.09765625 2.19140625 10.09765625 -1.6171875 10.1953125 C-4 10 -4 10 -6 8 C-5.195625 7.79375 -4.39125 7.5875 -3.5625 7.375 C-2.716875 6.92125 -1.87125 6.4675 -1 6 C-0.10169161 2.94727535 -0.10169161 2.94727535 0 0 Z " fill="#0AF2E2" transform="translate(57,15)"/>
<path d="M0 0 C2 2 2 2 2.1953125 5.0390625 C2.17210938 6.22242188 2.14890625 7.40578125 2.125 8.625 C2.10695313 9.81351563 2.08890625 11.00203125 2.0703125 12.2265625 C2.04710938 13.14179687 2.02390625 14.05703125 2 15 C0.84481082 14.09515208 -0.29885406 13.1755794 -1.4375 12.25 C-2.07558594 11.73953125 -2.71367188 11.2290625 -3.37109375 10.703125 C-5.18810554 8.80332371 -5.60423197 7.56413092 -6 5 C-7.32 5 -8.64 5 -10 5 C-10.061875 5.556875 -10.12375 6.11375 -10.1875 6.6875 C-11.35165517 10.00086472 -13.39458444 11.70475296 -16 14 C-16.99 14.33 -17.98 14.66 -19 15 C-19 10.05 -19 5.1 -19 0 C-15.41125 -0.2784375 -15.41125 -0.2784375 -11.75 -0.5625 C-11.00331055 -0.62381104 -10.25662109 -0.68512207 -9.48730469 -0.74829102 C-3.04723044 -1.21163686 -3.04723044 -1.21163686 0 0 Z " fill="#E7FCF5" transform="translate(102,30)"/>
<path d="M0 0 C0.99 0.33 1.98 0.66 3 1 C5.39254576 1.22560676 7.78928123 1.40848595 10.1875 1.5625 C13.5596875 1.7790625 13.5596875 1.7790625 17 2 C17 6.62 17 11.24 17 16 C15 16 15 16 13.4921875 14.609375 C12.95851563 13.99578125 12.42484375 13.3821875 11.875 12.75 C11.33617187 12.14671875 10.79734375 11.5434375 10.2421875 10.921875 C9 9 9 9 9 5 C7.02 5 5.04 5 3 5 C3.144375 5.70125 3.28875 6.4025 3.4375 7.125 C2.75597156 11.60361547 -0.49734998 13.39981848 -4 16 C-4.10841951 14.08458862 -4.18578079 12.16740227 -4.25 10.25 C-4.29640625 9.18265625 -4.3428125 8.1153125 -4.390625 7.015625 C-3.91735478 3.36197888 -2.80844958 2.27771895 0 0 Z " fill="#E3FDFE" transform="translate(32,29)"/>
<path d="M0 0 C10.74095348 2.05341758 10.74095348 2.05341758 13 5 C13.32178935 7.75429869 13.18304826 10.20851406 13 13 C11.77493102 13.65357278 10.54470484 14.29748233 9.3125 14.9375 C8.62800781 15.29714844 7.94351563 15.65679687 7.23828125 16.02734375 C5 17 5 17 0 18 C0 12.06 0 6.12 0 0 Z " fill="#F4FEFD" transform="translate(52,87)"/>
<path d="M0 0 C0 5.61 0 11.22 0 17 C-4.51420265 17 -5.66878881 16.97625013 -9.3125 15 C-10.00988281 14.62875 -10.70726563 14.2575 -11.42578125 13.875 C-11.94527344 13.58625 -12.46476562 13.2975 -13 13 C-13.43028322 7.75054466 -13.43028322 7.75054466 -13 5 C-9.62155114 2.01901571 -4.55735948 0 0 0 Z " fill="#F2FEFA" transform="translate(80,87)"/>
<path d="M0 0 C0.8353125 0.4640625 0.8353125 0.4640625 1.6875 0.9375 C1.6875 2.9175 1.6875 4.8975 1.6875 6.9375 C-7.72252278 11.52975513 -7.72252278 11.52975513 -12.3125 10.9375 C-12.61165966 1.96271008 -12.61165966 1.96271008 -10.3125 -1.0625 C-6.30701099 -2.397663 -3.79413284 -1.74325022 0 0 Z " fill="#EDFEFB" transform="translate(79.3125,25.0625)"/>
<path d="M0 0 C1.8871875 0.061875 1.8871875 0.061875 3.8125 0.125 C6.41268816 4.02528225 5.96335514 7.59934569 5.8125 12.125 C0.88534004 12.58692125 -2.69482625 10.9525283 -7.1875 9.125 C-7.375 5.75 -7.375 5.75 -7.1875 2.125 C-4.09861478 0.06574319 -3.47814073 -0.1140374 0 0 Z " fill="#EDFEFD" transform="translate(59.1875,23.875)"/>
<path d="M0 0 C0 1.98 0 3.96 0 6 C2.31 6 4.62 6 7 6 C7 11.61 7 17.22 7 23 C1 23 1 23 -1 22 C-1 23.65 -1 25.3 -1 27 C-1.33 27 -1.66 27 -2 27 C-2 25.02 -2 23.04 -2 21 C0.31 21 2.62 21 5 21 C5 16.71 5 12.42 5 8 C2.69 8 0.38 8 -2 8 C-2.66 5.69 -3.32 3.38 -4 1 C-18.85 0.505 -18.85 0.505 -34 0 C-34 -0.33 -34 -0.66 -34 -1 C-29.80125838 -1.19279158 -25.60222204 -1.3714261 -21.40234375 -1.53710938 C-19.97444624 -1.59541735 -18.54669964 -1.65755423 -17.11914062 -1.72363281 C-15.06408166 -1.81808538 -13.00886899 -1.89863877 -10.953125 -1.9765625 C-9.09929199 -2.05511475 -9.09929199 -2.05511475 -7.20800781 -2.13525391 C-4.13525065 -2.00570235 -2.554094 -1.63395097 0 0 Z " fill="#7FF2A4" transform="translate(115,52)"/>
<path d="M0 0 C5.94 0 11.88 0 18 0 C16.01150718 3.97698564 14.42339678 6.21351425 11 9 C8.00378878 9.23047779 6.65130336 8.53400702 4.3515625 6.6484375 C2.78553205 5.15592961 1.322262 3.71303359 0 2 C0 1.34 0 0.68 0 0 Z " fill="#F0FEF7" transform="translate(85,84)"/>
<path d="M0 0 C3.56463648 1.65190471 6.16446047 4.0807615 8.5625 7.1875 C8.5625 7.8475 8.5625 8.5075 8.5625 9.1875 C2.6225 9.1875 -3.3175 9.1875 -9.4375 9.1875 C-5.0375 0.3875 -5.0375 0.3875 0 0 Z " fill="#F3FEFA" transform="translate(94.4375,39.8125)"/>
<path d="M0 0 C1.32 0.33 2.64 0.66 4 1 C5.25 4.0625 5.25 4.0625 6 7 C7.54571278 4.68143083 8.79618552 2.49361571 10 0 C10.99 0 11.98 0 13 0 C13 4.29 13 8.58 13 13 C12.34 13 11.68 13 11 13 C10.67 11.35 10.34 9.7 10 8 C9.34 9.65 8.68 11.3 8 13 C7.01 13 6.02 13 5 13 C4.34 11.02 3.68 9.04 3 7 C2.67 8.98 2.34 10.96 2 13 C1.34 13 0.68 13 0 13 C0 8.71 0 4.42 0 0 Z " fill="#B25CFF" transform="translate(95,61)"/>
<path d="M0 0 C3.83911995 0.78527453 5.19650665 2.87736708 7.61328125 5.8359375 C8.75 7.5625 8.75 7.5625 8.75 9.5625 C2.81 9.5625 -3.13 9.5625 -9.25 9.5625 C-9.25 7.5625 -9.25 7.5625 -6.875 5.0625 C-6.00875 4.2375 -5.1425 3.4125 -4.25 2.5625 C-2.25 0.5625 -2.25 0.5625 0 0 Z " fill="#EDFEFE" transform="translate(38.25,39.4375)"/>
<path d="M0 0 C0.99 0.33 1.98 0.66 3 1 C3.33 2.32 3.66 3.64 4 5 C8.29 5.33 12.58 5.66 17 6 C17.33 6.99 17.66 7.98 18 9 C12 9 6 9 0 9 C-2.95705401 12.66012978 -3.58480161 16.22271999 -4.1875 20.8125 C-4.34605469 21.97394531 -4.50460938 23.13539062 -4.66796875 24.33203125 C-4.77753906 25.21246094 -4.88710938 26.09289062 -5 27 C-5.33 27 -5.66 27 -6 27 C-6 22.71 -6 18.42 -6 14 C-6.99 14 -7.98 14 -9 14 C-9 13.01 -9 12.02 -9 11 C-7.68 11 -6.36 11 -5 11 C-4.71125 10.38125 -4.4225 9.7625 -4.125 9.125 C-3 7 -3 7 -1 5 C-0.35232207 2.42938689 -0.35232207 2.42938689 0 0 Z " fill="#2FF0FE" transform="translate(31,22)"/>
<path d="M0 0 C5.61 0 11.22 0 17 0 C17 2 17 2 15.625 3.625 C14 5 14 5 12 5 C11.34 6.32 10.68 7.64 10 9 C7.33289346 8.84759391 5.5494129 8.50635081 3.5546875 6.66796875 C0 2.49375 0 2.49375 0 0 Z " fill="#E8FEFE" transform="translate(30,84)"/>
<path d="M0 0 C1.65 0.33 3.3 0.66 5 1 C4.01 2.485 4.01 2.485 3 4 C2.54860541 6.0492094 2.54860541 6.0492094 2.375 8.1875 C2.25125 9.445625 2.1275 10.70375 2 12 C2.66 12 3.32 12 4 12 C4.33 12.99 4.66 13.98 5 15 C4.01 15.495 4.01 15.495 3 16 C2.46326107 21.36090593 2.46326107 21.36090593 4.5 26 C4.995 26.33 5.49 26.66 6 27 C3 29 3 29 0.4375 28.75 C-2 28 -2 28 -4 26 C-3.01 25.67 -2.02 25.34 -1 25 C-1 22.03 -1 19.06 -1 16 C-1.66 15.67 -2.32 15.34 -3 15 C-2.67 14.01 -2.34 13.02 -2 12 C-1.34 12 -0.68 12 0 12 C0 8.04 0 4.08 0 0 Z " fill="#14F1BE" transform="translate(65,88)"/>
<path d="M0 0 C6.15234375 -0.09765625 6.15234375 -0.09765625 8 0 C9.89092493 1.89092493 9 5.47272105 9 8 C9.28520405 9.67557379 9.59955696 11.34817245 10 13 C9.01 13 8.02 13 7 13 C6.896875 12.360625 6.79375 11.72125 6.6875 11.0625 C6.460625 10.381875 6.23375 9.70125 6 9 C5.01 8.67 4.02 8.34 3 8 C3 9.65 3 11.3 3 13 C2.01 13 1.02 13 0 13 C0 8.71 0 4.42 0 0 Z " fill="#FE73A1" transform="translate(35,61)"/>
<path d="M0 0 C4 1 4 1 6.25 4.0625 C7.11625 5.5165625 7.11625 5.5165625 8 7 C8.33 4.69 8.66 2.38 9 0 C9.66 0 10.32 0 11 0 C11 4.29 11 8.58 11 13 C10.01 13 9.02 13 8 13 C6.02 9.535 6.02 9.535 4 6 C3.67 8.31 3.34 10.62 3 13 C2.01 13 1.02 13 0 13 C0 8.71 0 4.42 0 0 Z " fill="#E959C3" transform="translate(60,61)"/>
<path d="M0 0 C0.99 0 1.98 0 3 0 C3 1.32 3 2.64 3 4 C7.62 4 12.24 4 17 4 C17 4.33 17 4.66 17 5 C12.38 5 7.76 5 3 5 C3 9.95 3 14.9 3 20 C4.65 18.68 6.3 17.36 8 16 C8.66 16 9.32 16 10 16 C8.61122646 19.35620271 7.08322035 21.07298728 4 23 C3.34 23 2.68 23 2 23 C2 23.66 2 24.32 2 25 C1.34 25 0.68 25 0 25 C0.33 20.05 0.66 15.1 1 10 C0.01 9.67 -0.98 9.34 -2 9 C-1.34 8.34 -0.68 7.68 0 7 C0.16677282 3.41656024 0.16677282 3.41656024 0 0 Z " fill="#28F0BB" transform="translate(80,25)"/>
<path d="M0 0 C3.96 0 7.92 0 12 0 C11.67 0.66 11.34 1.32 11 2 C10.01 2 9.02 2 8 2 C7.938125 2.886875 7.87625 3.77375 7.8125 4.6875 C6.81065479 8.77194586 5.19904189 10.347136 2 13 C1.34 13 0.68 13 0 13 C0 8.71 0 4.42 0 0 Z " fill="#F5FEFB" transform="translate(84,31)"/>
<path d="M0 0 C4.87664009 -0.34833144 7.77050005 0.58314288 12 3 C10.63016497 6.16115776 10.0109362 6.9927092 7 9 C3.875 9.1875 3.875 9.1875 1 9 C0 8 0 8 -0.09765625 6.15234375 C-0.06510417 4.1015625 -0.03255208 2.05078125 0 0 Z " fill="#ECFDF7" transform="translate(67,104)"/>
<path d="M0 0 C0 2.97 0 5.94 0 9 C-4.16216275 9.32644414 -6.36313462 9.40650982 -9.9375 7.125 C-12 5 -12 5 -12 3 C-4.71428571 -0.42857143 -4.71428571 -0.42857143 0 0 Z " fill="#E1FDFA" transform="translate(65,104)"/>
<path d="M0 0 C1.32 0 2.64 0 4 0 C4.67305018 1.60149886 5.33822227 3.20631029 6 4.8125 C6.37125 5.70582031 6.7425 6.59914063 7.125 7.51953125 C8 10 8 10 8 13 C7.01 13 6.02 13 5 13 C5 12.01 5 11.02 5 10 C3.02 10 1.04 10 -1 10 C-1 10.99 -1 11.98 -1 13 C-1.66 13 -2.32 13 -3 13 C-2.69128878 11.20767663 -2.37790936 9.41615679 -2.0625 7.625 C-1.88847656 6.62726563 -1.71445312 5.62953125 -1.53515625 4.6015625 C-1 2 -1 2 0 0 Z " fill="#F87ABD" transform="translate(50,61)"/>
<path d="M0 0 C1.98 0 3.96 0 6 0 C6.3403125 1.051875 6.3403125 1.051875 6.6875 2.125 C7.8652236 4.70477551 8.82215033 6.02615994 10.6875 8.0625 C11.450625 9.031875 12.21375 10.00125 13 11 C12.64453125 13.18359375 12.64453125 13.18359375 12 15 C10.99406757 13.8803014 9.9954151 12.7540588 9 11.625 C8.1646875 10.68527344 8.1646875 10.68527344 7.3125 9.7265625 C6 8 6 8 6 6 C1.56909529 7.20842856 -0.98112756 8.51668565 -4 12 C-4.66 11.34 -5.32 10.68 -6 10 C-5.195625 9.278125 -4.39125 8.55625 -3.5625 7.8125 C-0.97707928 4.97484311 -0.31957187 3.72833853 0 0 Z " fill="#11F1FB" transform="translate(35,34)"/>
<path d="M0 0 C0.66 0.33 1.32 0.66 2 1 C0.25 7.75 0.25 7.75 -2 10 C-3.65 10 -5.3 10 -7 10 C-7 14.29 -7 18.58 -7 23 C-6.34 23 -5.68 23 -5 23 C-5 23.66 -5 24.32 -5 25 C-6.65 25.99 -8.3 26.98 -10 28 C-9.67 23.05 -9.34 18.1 -9 13 C-9.66 12.67 -10.32 12.34 -11 12 C-10.67 10.68 -10.34 9.36 -10 8 C-8.88625 7.87625 -7.7725 7.7525 -6.625 7.625 C-2.96896323 7.3534187 -2.96896323 7.3534187 -1 5 C-0.35232207 2.42938689 -0.35232207 2.42938689 0 0 Z " fill="#64F082" transform="translate(114,74)"/>
<path d="M0 0 C0.33 0 0.66 0 1 0 C1 4.29 1 8.58 1 13 C0.01 13.33 -0.98 13.66 -2 14 C-2.36351563 13.55527344 -2.72703125 13.11054687 -3.1015625 12.65234375 C-4.65704075 10.90143361 -6.10676914 9.38351486 -8 8 C-11.19954954 8.14349347 -11.19954954 8.14349347 -14 9 C-14.66 8.34 -15.32 7.68 -16 7 C-15.01 6.67 -14.02 6.34 -13 6 C-12.67 4.35 -12.34 2.7 -12 1 C-9.625 1.1875 -9.625 1.1875 -7 2 C-5.9375 4.3125 -5.9375 4.3125 -5 7 C-2.97959252 9.27191416 -2.97959252 9.27191416 -1 11 C-0.67 7.37 -0.34 3.74 0 0 Z " fill="#64F3BD" transform="translate(104,33)"/>
<path d="M0 0 C8.75 2.875 8.75 2.875 11 4 C11 4.99 11 5.98 11 7 C9.73160474 7.50615298 8.46016898 8.00469099 7.1875 8.5 C6.47980469 8.7784375 5.77210937 9.056875 5.04296875 9.34375 C3 10 3 10 0 10 C0 6.7 0 3.4 0 0 Z " fill="#EDFEFE" transform="translate(52,35)"/>
<path d="M0 0 C0 2.97 0 5.94 0 9 C-4.05606165 8.53199289 -7.46588679 8.12046792 -11 6 C-10.8125 4.125 -10.8125 4.125 -10 2 C-6.62176024 0.12320013 -3.82367701 -0.21849583 0 0 Z " fill="#EAFDFB" transform="translate(80,36)"/>
<path d="M0 0 C0.66 0.99 1.32 1.98 2 3 C1.01 3.33 0.02 3.66 -1 4 C-1 5.98 -1 7.96 -1 10 C-2.9375 10.5625 -2.9375 10.5625 -5 11 C-5.33 10.67 -5.66 10.34 -6 10 C-8.34987262 9.76472227 -10.70556039 9.58613583 -13.0625 9.4375 C-14.35285156 9.35371094 -15.64320312 9.26992187 -16.97265625 9.18359375 C-17.97167969 9.12300781 -18.97070312 9.06242187 -20 9 C-20 8.01 -20 7.02 -20 6 C-18.46279297 5.97873047 -18.46279297 5.97873047 -16.89453125 5.95703125 C-15.53381029 5.91010984 -14.17313459 5.86186256 -12.8125 5.8125 C-12.13896484 5.80669922 -11.46542969 5.80089844 -10.77148438 5.79492188 C-6.74287144 5.61805594 -5.11941921 5.10193561 -2.01171875 2.44921875 C-1.34785156 1.64097656 -0.68398437 0.83273438 0 0 Z " fill="#89F1A4" transform="translate(103,100)"/>
<path d="M0 0 C3.96 0 7.92 0 12 0 C12 3.96 12 7.92 12 12 C5.11121324 6.48897059 5.11121324 6.48897059 4.52734375 3.921875 C4.26630859 2.97054687 4.26630859 2.97054687 4 2 C2.68 1.34 1.36 0.68 0 0 Z " fill="#FBFFFE" transform="translate(36,32)"/>
<path d="M0 0 C0.99 0 1.98 0 3 0 C2.67 2.97 2.34 5.94 2 9 C2.99 9.33 3.98 9.66 5 10 C4.01 10.66 3.02 11.32 2 12 C0.79549696 14.55183404 0.79549696 14.55183404 0 17 C-0.33 17 -0.66 17 -1 17 C-1 13.37 -1 9.74 -1 6 C-4.96 6 -8.92 6 -13 6 C-13 5.67 -13 5.34 -13 5 C-12.22914062 4.97421875 -11.45828125 4.9484375 -10.6640625 4.921875 C-9.66117188 4.86515625 -8.65828125 4.8084375 -7.625 4.75 C-6.62726562 4.70359375 -5.62953125 4.6571875 -4.6015625 4.609375 C-1.8473523 4.27839115 -1.8473523 4.27839115 -0.6484375 1.953125 C-0.43445312 1.30859375 -0.22046875 0.6640625 0 0 Z " fill="#05EEF9" transform="translate(50,24)"/>
<path d="M0 0 C0.66 0 1.32 0 2 0 C2.33 3.3 2.66 6.6 3 10 C4.32 10 5.64 10 7 10 C7.33 6.7 7.66 3.4 8 0 C8.66 0 9.32 0 10 0 C10.05391993 1.79133978 10.09275571 3.58313899 10.125 5.375 C10.14820312 6.37273437 10.17140625 7.37046875 10.1953125 8.3984375 C10 11 10 11 8 13 C5 13.25 5 13.25 2 13 C0 11 0 11 -0.1953125 8.3984375 C-0.17210938 7.40070313 -0.14890625 6.40296875 -0.125 5.375 C-0.10695313 4.37210937 -0.08890625 3.36921875 -0.0703125 2.3359375 C-0.04710938 1.56507812 -0.02390625 0.79421875 0 0 Z " fill="#C64AEE" transform="translate(81,61)"/>
<path d="M0 0 C2.71527659 -0.07757933 5.07965687 0.01629345 7.75 0.5625 C8.4925 0.706875 9.235 0.85125 10 1 C10.33 0.67 10.66 0.34 11 0 C12.66617115 -0.04063832 14.33388095 -0.042721 16 0 C14.25 3.875 14.25 3.875 12 5 C4.83989501 5.46194226 4.83989501 5.46194226 1.5 3.625 C0 2 0 2 0 0 Z " fill="#CAFCF3" transform="translate(58,115)"/>
<path d="M0 0 C4.455 0.99 4.455 0.99 9 2 C6 4 6 4 3 4 C6.222107 7.8665284 9.14922412 8.88059018 14 10 C13.67 10.99 13.34 11.98 13 13 C11.68 13 10.36 13 9 13 C9 12.34 9 11.68 9 11 C6.36 10.34 3.72 9.68 1 9 C1.33 6.69 1.66 4.38 2 2 C1.34 2 0.68 2 0 2 C0 1.34 0 0.68 0 0 Z " fill="#20F0E6" transform="translate(55,111)"/>
<path d="M0 0 C0 3.60352128 -1.08590249 5.01400788 -3 8 C-3.33 8.66 -3.66 9.32 -4 10 C-6.375 9.8125 -6.375 9.8125 -9 9 C-10.25 6.625 -10.25 6.625 -11 4 C-11.33 3.01 -11.66 2.02 -12 1 C-11.46375 1.350625 -10.9275 1.70125 -10.375 2.0625 C-7.21609755 3.30943518 -5.24681029 2.84699399 -2 2 C-1.34 1.34 -0.68 0.68 0 0 Z " fill="#02EFEE" transform="translate(44,89)"/>
<path d="M0 0 C1.00023193 0.00523682 2.00046387 0.01047363 3.03100586 0.01586914 C4.1105957 0.0190918 5.19018555 0.02231445 6.30249023 0.02563477 C8.00695312 0.03820312 8.00695312 0.03820312 9.74584961 0.05102539 C11.45611328 0.05779297 11.45611328 0.05779297 13.20092773 0.06469727 C16.02845312 0.07652792 18.85587601 0.09301129 21.68334961 0.11352539 C21.35334961 1.43352539 21.02334961 2.75352539 20.68334961 4.11352539 C20.68334961 3.45352539 20.68334961 2.79352539 20.68334961 2.11352539 C14.74334961 2.11352539 8.80334961 2.11352539 2.68334961 2.11352539 C2.35334961 2.77352539 2.02334961 3.43352539 1.68334961 4.11352539 C1.35334961 3.45352539 1.02334961 2.79352539 0.68334961 2.11352539 C-1.34128294 1.46139247 -1.34128294 1.46139247 -3.31665039 1.11352539 C-2.31665039 0.11352539 -2.31665039 0.11352539 0 0 Z " fill="#4AF5B9" transform="translate(82.316650390625,81.886474609375)"/>
<path d="M0 0 C0.66 0.99 1.32 1.98 2 3 C0.68 3.33 -0.64 3.66 -2 4 C-2 6.31 -2 8.62 -2 11 C-4.31 11.66 -6.62 12.32 -9 13 C-9.66 12.34 -10.32 11.68 -11 11 C-9.5459375 10.319375 -9.5459375 10.319375 -8.0625 9.625 C-4.92920418 8.34213779 -4.92920418 8.34213779 -4 6 C-5.65 5.67 -7.3 5.34 -9 5 C-9 4.67 -9 4.34 -9 4 C-7.6078125 3.566875 -7.6078125 3.566875 -6.1875 3.125 C-2.90208333 2.1125 -2.90208333 2.1125 0 0 Z " fill="#5AF2B5" transform="translate(78,109)"/>
<path d="M0 0 C0.70189453 0.00451172 1.40378906 0.00902344 2.12695312 0.01367188 C3.85550538 0.02543073 5.58401365 0.04336546 7.3125 0.0625 C7.6425 1.0525 7.9725 2.0425 8.3125 3.0625 C7.34828125 3.12308594 6.3840625 3.18367188 5.390625 3.24609375 C4.12734375 3.32988281 2.8640625 3.41367188 1.5625 3.5 C0.30953125 3.58121094 -0.9434375 3.66242188 -2.234375 3.74609375 C-4.87067553 3.98765522 -7.16787294 4.30533934 -9.6875 5.0625 C-10.0175 3.7425 -10.3475 2.4225 -10.6875 1.0625 C-7.06882441 -0.1437252 -3.76243749 -0.04566918 0 0 Z " fill="#2DF2F1" transform="translate(40.6875,105.9375)"/>
<path d="M0 0 C0.33 0 0.66 0 1 0 C1.05404449 2.75026417 1.09369306 5.49946203 1.125 8.25 C1.15013672 9.41595703 1.15013672 9.41595703 1.17578125 10.60546875 C1.23662606 17.72431144 1.23662606 17.72431144 -1 21 C-1.33 20.34 -1.66 19.68 -2 19 C-4.34386809 18.08968728 -4.34386809 18.08968728 -7.0625 17.375 C-7.98160156 17.11460938 -8.90070313 16.85421875 -9.84765625 16.5859375 C-10.91306641 16.29589844 -10.91306641 16.29589844 -12 16 C-11.67 15.01 -11.34 14.02 -11 13 C-5.555 14.485 -5.555 14.485 0 16 C0 10.72 0 5.44 0 0 Z " fill="#80F3C1" transform="translate(80,88)"/>
<path d="M0 0 C0.99 0.33 1.98 0.66 3 1 C3 5.29 3 9.58 3 14 C2.67 14 2.34 14 2 14 C2 10.37 2 6.74 2 3 C-2.95562913 6.73021313 -2.95562913 6.73021313 -6 12 C-6 10.68 -6 9.36 -6 8 C-7.32 7.67 -8.64 7.34 -10 7 C-8.9171875 6.6596875 -8.9171875 6.6596875 -7.8125 6.3125 C-4.46790687 4.75168987 -2.48396041 2.6968713 0 0 Z " fill="#7DF4A5" transform="translate(102,86)"/>
<path d="M0 0 C0.33 0 0.66 0 1 0 C1.33 4.95 1.66 9.9 2 15 C5.96 15.33 9.92 15.66 14 16 C14 16.33 14 16.66 14 17 C12.77023438 17.07347656 12.77023438 17.07347656 11.515625 17.1484375 C10.43796875 17.22320312 9.3603125 17.29796875 8.25 17.375 C7.18265625 17.44460937 6.1153125 17.51421875 5.015625 17.5859375 C1.71533287 17.87451003 1.71533287 17.87451003 -2 20 C-1.34 13.4 -0.68 6.8 0 0 Z " fill="#28F198" transform="translate(81,91)"/>
<path d="M0 0 C3.3 0 6.6 0 10 0 C10 0.66 10 1.32 10 2 C8.68 2 7.36 2 6 2 C6 5.63 6 9.26 6 13 C5.34 13 4.68 13 4 13 C4 9.37 4 5.74 4 2 C2.68 2 1.36 2 0 2 C0 1.34 0 0.68 0 0 Z " fill="#FF2F49" transform="translate(23,61)"/>
<path d="M0 0 C0.33 0 0.66 0 1 0 C1 3.96 1 7.92 1 12 C2.65 11.01 4.3 10.02 6 9 C6.99 8.67 7.98 8.34 9 8 C7.61122646 11.35620271 6.08322035 13.07298728 3 15 C2.34 15 1.68 15 1 15 C1 15.66 1 16.32 1 17 C0.34 17 -0.32 17 -1 17 C-1.02684679 14.35409986 -1.04676357 11.70846904 -1.0625 9.0625 C-1.07087891 8.30775391 -1.07925781 7.55300781 -1.08789062 6.77539062 C-1.09652441 4.85005687 -1.05224333 2.92464419 -1 1 C-0.67 0.67 -0.34 0.34 0 0 Z " fill="#10F3B1" transform="translate(81,33)"/>
<path d="M0 0 C0.66 0 1.32 0 2 0 C2.33 1.98 2.66 3.96 3 6 C4.65 6.33 6.3 6.66 8 7 C5.04230603 8.97179598 3.83582038 9.36929854 0.4375 9.75 C-0.34753906 9.84796875 -1.13257813 9.9459375 -1.94140625 10.046875 C-4 10 -4 10 -6 8 C-5.195625 7.79375 -4.39125 7.5875 -3.5625 7.375 C-2.716875 6.92125 -1.87125 6.4675 -1 6 C-0.10169161 2.94727535 -0.10169161 2.94727535 0 0 Z " fill="#30F3FA" transform="translate(57,15)"/>
<path d="M0 0 C0.99 0 1.98 0 3 0 C3.33 1.98 3.66 3.96 4 6 C-0.34492771 7.13896163 -4.38620785 6.93100471 -8.8125 6.5625 C-9.85180664 6.48418945 -9.85180664 6.48418945 -10.91210938 6.40429688 C-12.60854437 6.27560181 -14.30434863 6.13863816 -16 6 C-16 5.67 -16 5.34 -16 5 C-8.08 4.505 -8.08 4.505 0 4 C0 2.68 0 1.36 0 0 Z " fill="#68F4C5" transform="translate(99,23)"/>
<path d="M0 0 C0.33 1.32 0.66 2.64 1 4 C2.32 4 3.64 4 5 4 C5 3.01 5 2.02 5 1 C5.99 1.33 6.98 1.66 8 2 C8.33 3.98 8.66 5.96 9 8 C8.01 8 7.02 8 6 8 C6 7.01 6 6.02 6 5 C4.02 5 2.04 5 0 5 C0 5.99 0 6.98 0 8 C-0.66 8 -1.32 8 -2 8 C-1.125 2.25 -1.125 2.25 0 0 Z " fill="#F241A1" transform="translate(49,66)"/>
<path d="M0 0 C0.66 0.33 1.32 0.66 2 1 C1.835 1.556875 1.67 2.11375 1.5 2.6875 C0.95958649 5.18691249 0.92917935 7.45045662 1 10 C-5.0546875 10.1953125 -5.0546875 10.1953125 -7 10 C-7.66 9.34 -8.32 8.68 -9 8 C-6.69 8 -4.38 8 -2 8 C-2.04125 7.05125 -2.0825 6.1025 -2.125 5.125 C-2 2 -2 2 0 0 Z " fill="#24EDFE" transform="translate(19,50)"/>
<path d="M0 0 C2.64 0 5.28 0 8 0 C7.34 0.66 6.68 1.32 6 2 C4.68 2 3.36 2 2 2 C2 5.63 2 9.26 2 13 C1.34 13 0.68 13 0 13 C0 8.71 0 4.42 0 0 Z " fill="#FF4B7E" transform="translate(35,61)"/>
<path d="M0 0 C1.32 0.33 2.64 0.66 4 1 C4 2.65 4 4.3 4 6 C3.67 6 3.34 6 3 6 C2.67 8.31 2.34 10.62 2 13 C1.34 13 0.68 13 0 13 C0 8.71 0 4.42 0 0 Z " fill="#B64BFE" transform="translate(95,61)"/>
<path d="M0 0 C0.66 0 1.32 0 2 0 C2 1.98 2 3.96 2 6 C4.31 6.66 6.62 7.32 9 8 C7.02 8.99 7.02 8.99 5 10 C4.01 9.34 3.02 8.68 2 8 C-1.12521833 7.83300768 -1.12521833 7.83300768 -4 8 C-3.525625 7.608125 -3.05125 7.21625 -2.5625 6.8125 C-0.64820367 4.59191626 -0.38733012 2.86624291 0 0 Z " fill="#2DF2E1" transform="translate(73,16)"/>
<path d="M0 0 C0 3.63 0 7.26 0 11 C-0.99 10.67 -1.98 10.34 -3 10 C-2.34 10 -1.68 10 -1 10 C-1 7.03 -1 4.06 -1 1 C-2.2375 1.37125 -3.475 1.7425 -4.75 2.125 C-7.50855114 2.95256534 -8.56508292 3.1814654 -11.265625 2.0546875 C-11.83796875 1.70664062 -12.4103125 1.35859375 -13 1 C-11.59054634 0.43983252 -10.1719969 -0.09748502 -8.75 -0.625 C-7.96109375 -0.92664062 -7.1721875 -1.22828125 -6.359375 -1.5390625 C-4 -2 -4 -2 0 0 Z " fill="#59F4D7" transform="translate(81,35)"/>
<path d="M0 0 C0.66 0 1.32 0 2 0 C2 4.29 2 8.58 2 13 C1.01 13 0.02 13 -1 13 C-1.33 11.68 -1.66 10.36 -2 9 C-1.34 9 -0.68 9 0 9 C0 6.03 0 3.06 0 0 Z " fill="#DC43CA" transform="translate(69,61)"/>
<path d="M0 0 C0.33 0.99 0.66 1.98 1 3 C7.27 3 13.54 3 20 3 C20 3.33 20 3.66 20 4 C12.08 4 4.16 4 -4 4 C-3.34 3.67 -2.68 3.34 -2 3 C-2 2.34 -2 1.68 -2 1 C-1.34 0.67 -0.68 0.34 0 0 Z " fill="#3AEF9A" transform="translate(84,47)"/>
<path d="M0 0 C0.33 0 0.66 0 1 0 C1 4.29 1 8.58 1 13 C0.01 13.33 -0.98 13.66 -2 14 C-3.70884005 12.37660195 -5.37446717 10.70680947 -7 9 C-7 8.34 -7 7.68 -7 7 C-4.53199953 8.15173355 -2.95216435 9.04783565 -1 11 C-0.67 7.37 -0.34 3.74 0 0 Z " fill="#70F5BA" transform="translate(104,33)"/>
<path d="M0 0 C3.3 0.99 6.6 1.98 10 3 C10 4.98 10 6.96 10 9 C9.67 8.01 9.34 7.02 9 6 C6.90280128 4.97718482 6.90280128 4.97718482 4.4375 4.3125 C3.61121094 4.06113281 2.78492188 3.80976562 1.93359375 3.55078125 C1.29550781 3.36902344 0.65742187 3.18726563 0 3 C0 2.01 0 1.02 0 0 Z " fill="#30F3EE" transform="translate(54,33)"/>
<path d="M0 0 C2.71928517 0.37507382 3.84218661 0.84218661 5.8125 2.8125 C7 5 7 5 6.57421875 7.13671875 C6.38472656 7.75160156 6.19523437 8.36648437 6 9 C4.99406757 7.8803014 3.9954151 6.7540588 3 5.625 C2.443125 4.99851562 1.88625 4.37203125 1.3125 3.7265625 C0 2 0 2 0 0 Z " fill="#26F3F8" transform="translate(41,40)"/>
<path d="M0 0 C1.65 0 3.3 0 5 0 C3.54728878 3.75283733 3.54728878 3.75283733 1.0625 4.875 C-1 5 -1 5 -4 3 C-2.68 3 -1.36 3 0 3 C0 2.01 0 1.02 0 0 Z " fill="#E4FDF3" transform="translate(69,115)"/>
<path d="M0 0 C2.97 0.99 5.94 1.98 9 3 C8.34 4.32 7.68 5.64 7 7 C6.608125 6.54625 6.21625 6.0925 5.8125 5.625 C3.69167513 3.72357081 1.66957765 2.93795972 -1 2 C-0.67 1.34 -0.34 0.68 0 0 Z " fill="#24F0D4" transform="translate(72,43)"/>
<path d="M0 0 C1.9375 0.8125 1.9375 0.8125 4 2 C4.33 2.99 4.66 3.98 5 5 C5.99 5 6.98 5 8 5 C8 5.66 8 6.32 8 7 C5.6875 7.3125 5.6875 7.3125 3 7 C1.18116991 4.6167054 0 3.04181663 0 0 Z " fill="#4CF0AA" transform="translate(102,29)"/>
<path d="M0 0 C3.91211733 1.15585285 6.8745041 2.35534962 10 5 C6.31733897 4.40049704 2.65456815 3.75241109 -1 3 C-0.67 2.01 -0.34 1.02 0 0 Z " fill="#4FF0C3" transform="translate(69,101)"/>
<path d="M0 0 C2.37948772 0.17625835 3.70225849 0.69719773 5.37890625 2.40234375 C6.62115486 3.90649092 7.81376056 5.45129851 9 7 C6 7 6 7 3.8125 5.125 C2 3 2 3 2 1 C1.34 0.67 0.68 0.34 0 0 Z " fill="#56F5A0" transform="translate(83,86)"/>
<path d="M0 0 C-3.26545761 1.88391785 -6.28111761 2.49287967 -10 3 C-10 2.34 -10 1.68 -10 1 C-6.21812119 -0.83691257 -4.05431692 -1.15837626 0 0 Z " fill="#22F1E0" transform="translate(64,103)"/>
<path d="M0 0 C0.66 0.33 1.32 0.66 2 1 C0.125 7.875 0.125 7.875 -1 9 C-2.99958364 9.04080783 -5.00045254 9.04254356 -7 9 C-6.38125 8.71125 -5.7625 8.4225 -5.125 8.125 C-2.86674235 7.06279958 -2.86674235 7.06279958 -1 5 C-0.35232207 2.42938689 -0.35232207 2.42938689 0 0 Z " fill="#66F286" transform="translate(114,74)"/>
<path d="M0 0 C1.32 0 2.64 0 4 0 C4 1.65 4 3.3 4 5 C2.68 5 1.36 5 0 5 C0 3.35 0 1.7 0 0 Z " fill="#3BF4A2" transform="translate(92,34)"/>
<path d="M0 0 C0.33 0 0.66 0 1 0 C1.144375 1.0725 1.28875 2.145 1.4375 3.25 C1.83749442 5.91662949 2.27591924 8.41399729 3 11 C1.68 10.34 0.36 9.68 -1 9 C-0.67 6.03 -0.34 3.06 0 0 Z " fill="#37F1FE" transform="translate(19,73)"/>
<path d="M0 0 C4.29 0.33 8.58 0.66 13 1 C13 1.33 13 1.66 13 2 C11.73542969 2.09087891 11.73542969 2.09087891 10.4453125 2.18359375 C9.34960938 2.26738281 8.25390625 2.35117188 7.125 2.4375 C6.03445312 2.51871094 4.94390625 2.59992188 3.8203125 2.68359375 C1.05271029 2.83001703 1.05271029 2.83001703 -1 4 C-0.67 2.68 -0.34 1.36 0 0 Z " fill="#52ED87" transform="translate(82,106)"/>
<path d="M0 0 C-1.76956458 2.14210449 -2.87575652 2.96060573 -5.5625 3.8125 C-6.7690625 3.9053125 -6.7690625 3.9053125 -8 4 C-8.66 3.34 -9.32 2.68 -10 2 C-8.71211992 1.46987262 -7.41953322 0.9511671 -6.125 0.4375 C-5.40570313 0.14746094 -4.68640625 -0.14257812 -3.9453125 -0.44140625 C-2 -1 -2 -1 0 0 Z " fill="#4BF2C5" transform="translate(78,86)"/>
<path d="M0 0 C0.33 0 0.66 0 1 0 C1 4.29 1 8.58 1 13 C0.01 12.67 -0.98 12.34 -2 12 C-2 11.34 -2 10.68 -2 10 C-1.34 10 -0.68 10 0 10 C0 6.7 0 3.4 0 0 Z " fill="#38F287" transform="translate(105,36)"/>
<path d="M0 0 C-0.33 0.99 -0.66 1.98 -1 3 C-2.32 3 -3.64 3 -5 3 C-5.33 2.01 -5.66 1.02 -6 0 C-3.50907189 -1.24546405 -2.58919267 -0.7767578 0 0 Z " fill="#0AF0C3" transform="translate(69,121)"/>
</svg>
